<svg width="163" height="205" viewBox="0 0 163 205" fill="none" xmlns="http://www.w3.org/2000/svg">
<path d="M154.4 37.126V192.087C154.4 193.371 153.888 194.603 152.977 195.511C152.065 196.419 150.829 196.929 149.54 196.929H13.46C12.171 196.929 10.9349 196.419 10.0234 195.511C9.11201 194.603 8.59998 193.371 8.59998 192.087V12.9134C8.59998 11.6291 9.11201 10.3974 10.0234 9.4892C10.9349 8.58105 12.171 8.07086 13.46 8.07086H125.24L154.4 37.126Z" fill="#F8F8F8"/>
<path opacity="0.2" d="M125.24 8.07086H13.46C12.171 8.07086 10.9349 8.58105 10.0234 9.4892C9.11201 10.3974 8.59998 11.6291 8.59998 12.9134V192.087C8.59998 193.371 9.11201 194.603 10.0234 195.511C10.9349 196.419 12.171 196.929 13.46 196.929H149.54C150.829 196.929 152.065 196.419 152.977 195.511C153.888 194.603 154.4 193.371 154.4 192.087V37.126L125.24 8.07086ZM152.78 192.087C152.78 192.943 152.439 193.764 151.831 194.369C151.223 194.975 150.399 195.315 149.54 195.315H13.46C12.6007 195.315 11.7766 194.975 11.1689 194.369C10.5613 193.764 10.22 192.943 10.22 192.087V12.9134C10.22 12.0572 10.5613 11.236 11.1689 10.6306C11.7766 10.0252 12.6007 9.68504 13.46 9.68504H124.576L125.24 10.3468V32.2835C125.24 33.5678 125.752 34.7995 126.663 35.7076C127.575 36.6158 128.811 37.126 130.1 37.126H152.116L152.78 37.7878V192.087Z" fill="black"/>
<g opacity="0.2">
<path opacity="0.2" d="M122 138.819H81.5V142.047H122V138.819Z" fill="black"/>
<path opacity="0.2" d="M122 129.134H41V132.362H122V129.134Z" fill="black"/>
<path opacity="0.2" d="M122 119.449H41V122.677H122V119.449Z" fill="black"/>
<path opacity="0.2" d="M122 109.764H41V112.992H122V109.764Z" fill="black"/>
<path opacity="0.2" d="M122 100.079H41V103.307H122V100.079Z" fill="black"/>
<path opacity="0.2" d="M79.88 69.4094H41V72.6378H79.88V69.4094Z" fill="black"/>
<path opacity="0.2" d="M71.78 59.7244H41V62.9527H71.78V59.7244Z" fill="black"/>
</g>
</svg>
