<svg width="294" height="157" viewBox="0 0 294 157" fill="none" xmlns="http://www.w3.org/2000/svg">
<path d="M233.742 124.95L194.736 127.118C100.745 127.118 139.328 131.054 106.235 131.054C72.4998 131.054 59.3162 132.872 34.3589 132.692C10.7693 131.054 -9.55565 87.6516 16.339 65.1991C45.7864 34.2807 50.0136 1.90469e-06 100.869 0C139.824 -1.45902e-06 149.686 24.9002 223.404 17.6922C274.45 12.701 299.878 98.9454 285.982 127.118C274.837 149.71 233.742 124.95 233.742 124.95Z" fill="#E9F7FF"/>
<path fill-rule="evenodd" clip-rule="evenodd" d="M72.3482 88.6297L102.077 128.538C103.12 129.939 106.536 131.828 106.536 131.828C106.536 131.828 90.2577 131.337 67.8148 134.613C45.3719 137.889 34.1288 131.708 34.1288 131.708C34.1288 131.708 35.5993 129.901 36.6909 128.501L67.8148 88.5932C68.8627 87.2496 71.335 87.2695 72.3482 88.6297Z" fill="#E1C6C6"/>
<path fill-rule="evenodd" clip-rule="evenodd" d="M70.3433 88.5932C80.0131 100.491 82.478 119.641 94.4231 131.708C94.4231 131.708 90.2577 131.336 67.8148 134.613C45.3719 137.889 34.1288 131.708 34.1288 131.708C34.1288 131.708 35.5993 129.901 36.6909 128.501L67.8148 88.5932C68.8627 87.2496 69.33 87.233 70.3433 88.5932Z" fill="#E6CECE"/>
<path d="M75.2732 99.3529C76.9796 97.2673 79.9726 99.0616 79.6341 98.2153C79.2549 97.2673 76.0923 92.9412 75.2732 91.9583L71.8603 87.787C70.3435 86.0806 68.2578 86.6494 66.3618 89.3039L63.8969 92.5271C62.3801 94.4285 59.3464 98.9737 59.3464 98.9737C63.5177 95.1816 65.2626 98.8259 67.1202 97.0776C70.3435 94.044 72.8097 102.364 75.2732 99.3529Z" fill="white"/>
<path fill-rule="evenodd" clip-rule="evenodd" d="M189.995 97.0057H167.094C166.883 96.529 166.766 96.0017 166.766 95.447C166.766 93.6027 168.06 92.0606 169.79 91.6793C170.419 88.8989 172.905 86.823 175.876 86.823C178.055 86.823 179.972 87.939 181.089 89.6303C181.677 89.2984 182.356 89.1089 183.079 89.1089C185.317 89.1089 187.131 90.9232 187.131 93.1612C187.131 93.4024 187.11 93.6387 187.07 93.8683C187.147 93.8617 187.225 93.8583 187.304 93.8583C188.808 93.8583 190.028 95.0776 190.028 96.5817C190.028 96.7259 190.017 96.8675 189.995 97.0057Z" fill="white"/>
<path fill-rule="evenodd" clip-rule="evenodd" d="M218.067 79.7734L253.639 127.375C254.887 129.045 256.21 132.036 256.21 132.036C256.21 132.036 248.346 142.521 215.255 136.623C182.164 130.726 169.223 136.623 169.223 136.623C169.223 136.623 174.095 129.001 175.401 127.331L212.642 79.7299C213.896 78.1272 216.854 78.151 218.067 79.7734Z" fill="#B59C9C"/>
<path fill-rule="evenodd" clip-rule="evenodd" d="M218.067 79.7734C223.544 99.1634 238.949 115.67 247.245 134.43C247.245 134.43 248.346 142.521 215.255 136.623C182.164 130.726 169.223 136.623 169.223 136.623C169.223 136.623 174.095 129.001 175.401 127.331L212.642 79.7299C213.896 78.1272 216.854 78.151 218.067 79.7734Z" fill="#BCA7A7"/>
<path d="M210.462 92.5272C209.081 94.0095 208.565 88.7351 205.342 88.3559C205.342 88.3559 205.621 87.3805 206.365 86.4771L212.678 78.5419C213.848 77.122 216.463 77.1632 217.562 78.6189L224.198 87.4079C224.544 87.8665 226.712 90.3761 226.395 90.848C223.734 90.848 221.714 86.4568 219.183 89.3039C216.15 92.7168 215.581 87.0287 210.462 92.5272Z" fill="white"/>
<path fill-rule="evenodd" clip-rule="evenodd" d="M149.349 67.7395L205.885 140.618C207.869 143.176 212.47 148.91 212.47 148.91C212.47 148.91 185.932 162.018 143.176 151.858C100.42 141.698 76.6662 146.407 76.6662 146.407C76.6662 146.407 79.4627 143.108 81.5387 140.552L140.728 67.6728C142.72 65.2192 147.422 65.2556 149.349 67.7395Z" fill="#FAE0D2"/>
<path fill-rule="evenodd" clip-rule="evenodd" d="M147.512 66.69C170.203 95.9401 181.262 135.378 201.331 152.677C201.331 152.677 177.414 160.377 140.728 152.677C104.042 144.978 75.028 147.599 75.028 147.599C96.8939 121.801 119.408 92.9402 140.728 66.69C142.72 64.2364 145.586 64.206 147.512 66.69Z" fill="#FFE9DD"/>
<path d="M130.726 99.273C126.794 98.1263 131.513 87.7249 120.209 92.148C117.256 90.99 132.159 76.0659 138.753 67.9747C141.865 64.399 145.142 62.6648 149.401 67.3287C155.696 75.2756 169.394 89.094 167.8 91.5791C159.609 88.1589 170.323 102.401 157.1 94.3149C152.349 91.4098 151.367 87.1506 149.401 87.1506C147.435 87.1506 145.305 93.3756 140.555 93.3756C135.804 93.3756 134.657 100.42 130.726 99.273Z" fill="white"/>
<path fill-rule="evenodd" clip-rule="evenodd" d="M121.854 114.577H94.4366C94.1843 114.006 94.0442 113.375 94.0442 112.711C94.0442 110.503 95.5935 108.657 97.6644 108.2C98.4185 104.872 101.395 102.387 104.952 102.387C107.559 102.387 109.855 103.723 111.192 105.747C111.895 105.35 112.708 105.123 113.574 105.123C116.253 105.123 118.425 107.295 118.425 109.975C118.425 110.263 118.4 110.546 118.352 110.821C118.444 110.813 118.538 110.809 118.633 110.809C120.433 110.809 121.893 112.269 121.893 114.07C121.893 114.242 121.88 114.412 121.854 114.577Z" fill="white"/>
<path fill-rule="evenodd" clip-rule="evenodd" d="M282.012 45.6183C281.581 38.8084 275.921 33.4187 269.002 33.4187C264.389 33.4187 260.336 35.814 258.019 39.4286C257.445 39.2538 256.836 39.1597 256.204 39.1597C252.769 39.1597 249.985 41.9442 249.985 45.3791C249.985 45.4592 249.986 45.539 249.989 45.6183H282.012Z" fill="#D0E7F9"/>
<path fill-rule="evenodd" clip-rule="evenodd" d="M27.8453 70.2817H4.25946C4.3109 65.2945 8.36966 61.2676 13.369 61.2676C16.5847 61.2676 19.4113 62.9337 21.0325 65.4498C21.599 65.2262 22.2164 65.1034 22.8624 65.1034C25.6164 65.1034 27.8489 67.3359 27.8489 70.0899C27.8489 70.1541 27.8477 70.2181 27.8453 70.2817Z" fill="#D0E7F9"/>
<path fill-rule="evenodd" clip-rule="evenodd" d="M67.8605 140.27H1.14763C0.412677 138.772 0 137.087 0 135.306C0 129.075 5.05163 124.023 11.2831 124.023C11.8422 124.023 12.3918 124.064 12.929 124.142C14.8243 116.084 22.06 110.085 30.6968 110.085C39.3104 110.085 46.5304 116.052 48.4492 124.077C52.3591 124.858 55.5452 127.645 56.8889 131.319C57.8622 130.895 58.9367 130.66 60.066 130.66C64.4647 130.66 68.0306 134.226 68.0306 138.625C68.0306 139.189 67.972 139.739 67.8605 140.27Z" fill="white"/>
<path fill-rule="evenodd" clip-rule="evenodd" d="M234.13 146.446H293.802C293.858 146.086 293.888 145.717 293.888 145.342C293.888 141.422 290.711 138.245 286.792 138.245C286.585 138.245 286.381 138.254 286.18 138.271C286.285 137.673 286.34 137.057 286.34 136.429C286.34 130.598 281.613 125.87 275.781 125.87C273.897 125.87 272.128 126.364 270.596 127.229C267.687 122.822 262.691 119.914 257.015 119.914C249.274 119.914 242.796 125.323 241.155 132.568C236.648 133.561 233.275 137.579 233.275 142.385C233.275 143.83 233.58 145.204 234.13 146.446Z" fill="white"/>
<path d="M171.109 44.0911C174.222 44.0911 175.368 48.0227 175.368 48.0227C175.368 48.0227 176.515 44.0911 179.3 44.0911" stroke="#BADAF4" stroke-width="2" stroke-linecap="round" stroke-linejoin="round"/>
<path d="M179.955 36.2279C182.445 36.2279 183.363 39.1766 183.363 39.1766C183.363 39.1766 184.28 36.2279 186.508 36.2279" stroke="#BADAF4" stroke-width="2" stroke-linecap="round" stroke-linejoin="round"/>
<path d="M164.229 38.5214C165.848 38.5214 166.444 40.4872 166.444 40.4872C166.444 40.4872 167.04 38.5214 168.488 38.5214" stroke="#BADAF4" stroke-width="2" stroke-linecap="round" stroke-linejoin="round"/>
<path d="M256.865 80.2703C258.484 80.2703 259.08 82.2361 259.08 82.2361C259.08 82.2361 259.676 80.2703 261.124 80.2703" stroke="#BADAF4" stroke-width="2" stroke-linecap="round" stroke-linejoin="round"/>
<path d="M80.3007 43.9759L96.1197 71.9508M96.1197 71.9508L87.181 50.8562M96.1197 71.9508L88.983 34.8021M96.1197 71.9508L103.235 34.8021M96.1197 71.9508L105.201 50.8562M96.1197 71.9508L112.081 43.9759M96.1197 71.9508V41.8463" stroke="#CBE4F6"/>
<path d="M93.7337 68.3845H98.3206V70.678C98.3206 71.9446 97.2938 72.9714 96.0272 72.9714C94.7605 72.9714 93.7337 71.9446 93.7337 70.678V68.3845Z" fill="#BCA7A7"/>
<rect x="93.406" y="68.0569" width="5.24214" height="0.655268" fill="#CBE4F6"/>
<rect x="94.3891" y="69.3674" width="0.655268" height="2.62107" fill="#E1C6C6"/>
<rect x="95.6994" y="69.3674" width="0.655268" height="2.62107" fill="#E1C6C6"/>
<rect x="97.0101" y="69.3674" width="0.655268" height="2.62107" fill="#E1C6C6"/>
<circle cx="95.9402" cy="37.9209" r="17.4436" fill="#D0E7F9"/>
<ellipse cx="95.9401" cy="37.9209" rx="11.3763" ry="17.4436" fill="#E9F7FF"/>
<ellipse cx="95.9401" cy="37.9209" rx="4.55052" ry="17.4436" fill="#D0E7F9"/>
</svg>
