<svg width="132" height="24" viewBox="0 0 132 24" fill="none" xmlns="http://www.w3.org/2000/svg">
<path fill-rule="evenodd" clip-rule="evenodd" d="M11.911 23.7059L1.18526 18.7649C0.271581 18.3335 0.271581 17.6669 1.18526 17.2747L4.9194 15.5493L11.8713 18.7649C12.785 19.1963 14.2548 19.1963 15.1287 18.7649L22.0806 15.5493L25.8147 17.2747C26.7284 17.7061 26.7284 18.3727 25.8147 18.7649L15.089 23.7059C14.2548 24.098 12.785 24.098 11.911 23.7059Z" fill="#FF6F3D"/>
<path fill-rule="evenodd" clip-rule="evenodd" d="M11.8762 17.5915L1.18317 12.6448C0.272277 12.2129 0.272277 11.5455 1.18317 11.1529L4.82673 9.46472L11.8762 12.7233C12.7871 13.1551 14.2525 13.1551 15.1238 12.7233L22.1733 9.46472L25.8168 11.1529C26.7277 11.5848 26.7277 12.2522 25.8168 12.6448L15.1238 17.5915C14.2129 18.0234 12.7475 18.0234 11.8762 17.5915Z" fill="#95C038"/>
<path fill-rule="evenodd" clip-rule="evenodd" d="M11.8762 11.5408L1.18317 6.6652C0.272277 6.23956 0.272277 5.58174 1.18317 5.19479L11.8762 0.319233C12.7871 -0.106411 14.2525 -0.106411 15.1238 0.319233L25.8168 5.19479C26.7277 5.62044 26.7277 6.27825 25.8168 6.6652L15.1238 11.5408C14.2129 11.9277 12.7475 11.9277 11.8762 11.5408Z" fill="#5DC0E8"/>
<path fill-rule="evenodd" clip-rule="evenodd" d="M32.7354 12C32.7354 7.64845 35.702 5.8667 38.7211 5.8667C41.7401 5.8667 44.7068 7.64845 44.7068 12C44.7068 16.3516 41.7401 18.1334 38.7211 18.1334C35.702 18.1334 32.7354 16.3516 32.7354 12ZM42.0891 12C42.0891 7.93969 39.646 7.57992 38.7211 7.57992C37.7962 7.57992 35.353 7.93969 35.353 12C35.353 16.0604 37.7962 16.4201 38.7211 16.4201C39.646 16.4201 42.0891 16.0604 42.0891 12ZM49.1982 17.9963H46.7201V6.00376H49.9311L54.1543 13.5591L54.8 15.1866H54.8523L54.8 13.0622V6.00376H57.278V17.9963H54.067L49.8089 10.1497L49.1982 8.81344H49.1458L49.1982 10.9378V17.9963ZM59.7232 17.9963H67.0527V15.9747H62.2013V6.00376H59.7232V17.9963ZM69.4609 13.0965L64.9585 6.00376H67.8205L70.3335 10.2183L70.7174 11.0406H70.7698L71.1886 10.2183L73.719 6.00376H76.3367L71.939 13.1308V17.9963H69.4609V13.0965ZM82.1103 5.8667C79.0912 5.8667 76.1245 7.64845 76.1245 12C76.1245 16.3516 79.0912 18.1334 82.1103 18.1334C85.1293 18.1334 88.096 16.3516 88.096 12C88.096 7.64845 85.1293 5.8667 82.1103 5.8667ZM82.1103 7.57992C83.0352 7.57992 85.4783 7.93969 85.4783 12C85.4783 16.0604 83.0352 16.4201 82.1103 16.4201C81.1853 16.4201 78.7422 16.0604 78.7422 12C78.7422 7.93969 81.1853 7.57992 82.1103 7.57992ZM92.5873 17.9963H90.1093V6.00376H96.9501V8.02536H92.5873V10.9378H96.7407V12.908H92.5873V17.9963ZM98.6985 17.9963H101.177V12.908H105.33V10.9378H101.177V8.02536H105.539V6.00376H98.6985V17.9963ZM109.766 17.9963H107.288V6.00376H109.766V17.9963ZM121.13 15.5807C120.52 15.8548 119.664 16.1118 118.583 16.1118C116.384 16.1118 114.394 14.9296 114.394 12.0343C114.394 9.58439 116.017 7.8883 118.757 7.8883C119.682 7.8883 120.467 8.05962 121.183 8.33374L121.287 6.27787C120.363 5.98662 119.542 5.8667 118.583 5.8667C114.743 5.8667 111.777 7.93969 111.777 12.0686C111.777 16.4373 115.092 18.1334 118.129 18.1334C119.106 18.1334 120.205 17.9792 121.287 17.6194L121.13 15.5807ZM130.5 17.9963H123.205V6.00376H130.5V8.12815H125.683V10.835H130.063V12.8052H125.683V15.8719H130.5V17.9963Z" fill="#333333"/>
</svg>
