<svg width="94" height="69" viewBox="0 0 94 69" fill="none" xmlns="http://www.w3.org/2000/svg">
<path fill-rule="evenodd" clip-rule="evenodd" d="M43.3831 46.424L22.3442 36.7479C20.5519 35.9031 20.5519 34.5976 22.3442 33.8297L29.6688 30.4507L43.3052 36.7479C45.0974 37.5926 47.9805 37.5926 49.6948 36.7479L63.3312 30.4507L70.6558 33.8297C72.4481 34.6744 72.4481 35.9799 70.6558 36.7479L49.6169 46.424C47.9805 47.192 45.0974 47.192 43.3831 46.424Z" fill="#FF6F3D"/>
<path fill-rule="evenodd" clip-rule="evenodd" d="M43.3149 34.4502L22.3401 24.7628C20.5533 23.9171 20.5533 22.6101 22.3401 21.8412L29.4871 18.5352L43.3149 24.9166C45.1017 25.7623 47.976 25.7623 49.6851 24.9166L63.5129 18.5352L70.6599 21.8412C72.4467 22.6869 72.4467 23.994 70.6599 24.7628L49.6851 34.4502C47.8983 35.2959 45.024 35.2959 43.3149 34.4502Z" fill="#95C038"/>
<path fill-rule="evenodd" clip-rule="evenodd" d="M43.3149 22.6007L22.3401 13.0527C20.5533 12.2191 20.5533 10.9309 22.3401 10.1731L43.3149 0.625166C45.1017 -0.208389 47.976 -0.208389 49.6851 0.625166L70.6599 10.1731C72.4467 11.0067 72.4467 12.2949 70.6599 13.0527L49.6851 22.6007C47.8983 23.3585 45.024 23.3585 43.3149 22.6007Z" fill="#5DC0E8"/>
<path fill-rule="evenodd" clip-rule="evenodd" d="M42.1158 62.9809C42.1158 60.9873 42.6891 59.4827 43.8738 58.5046C45.0204 57.489 46.3962 57 47.9631 57C49.53 57 50.8676 57.489 52.0141 58.5046C53.1607 59.5202 53.734 60.9873 53.734 63.0186C53.734 65.0121 53.1607 66.5168 52.0141 67.4948C50.8676 68.5105 49.4918 68.9994 47.9631 68.9994C46.3962 68.9994 45.0585 68.5105 43.8738 67.4948C42.7273 66.4792 42.1158 64.9746 42.1158 62.9809ZM44.6381 62.9809C44.6381 64.3726 44.9057 65.3507 45.4025 65.9902C45.9376 66.6296 46.4726 67.0434 47.1223 67.1939C47.1487 67.2004 47.174 67.2069 47.1986 67.2132C47.316 67.2433 47.4163 67.2691 47.5427 67.2691C47.6 67.2691 47.6669 67.2785 47.7337 67.2879C47.8006 67.2973 47.8675 67.3067 47.9249 67.3067C48.0777 67.3067 48.1924 67.3067 48.3453 67.2691C48.4717 67.2691 48.5721 67.2433 48.6896 67.2131C48.7141 67.2069 48.7393 67.2004 48.7656 67.1939C49.3772 67.0434 49.9504 66.6296 50.4472 65.9902C50.9441 65.3507 51.2116 64.3351 51.2116 63.0186C51.2116 61.6644 50.9441 60.6863 50.4472 60.0469C49.9504 59.4074 49.3772 58.9936 48.7656 58.8432C48.6128 58.8056 48.46 58.7679 48.3453 58.7679C48.2688 58.7679 48.202 58.7585 48.1351 58.7491C48.0682 58.7397 48.0013 58.7303 47.9249 58.7303C47.772 58.7303 47.6573 58.7303 47.5427 58.7679C47.4281 58.7679 47.2754 58.8055 47.1226 58.8431L47.1223 58.8432C46.5108 58.9936 45.9376 59.4074 45.4025 60.0469C44.9057 60.6111 44.6381 61.6267 44.6381 62.9809ZM1.75801 58.5052C0.573263 59.4833 0 60.9879 0 62.9815C0 64.9752 0.573263 66.4798 1.75801 67.4954C2.94276 68.5111 4.28037 69 5.84729 69C7.37599 69 8.75184 68.5111 9.89837 67.4954C11.0449 66.5174 11.6181 65.0128 11.6181 63.0192C11.6181 60.9879 11.0449 59.5209 9.89837 58.5052C8.75184 57.4896 7.41422 57.0006 5.84729 57.0006C4.28037 57.0006 2.90453 57.4896 1.75801 58.5052ZM3.28672 65.9908C2.78988 65.3513 2.52236 64.3733 2.52236 62.9815C2.52236 61.6274 2.78988 60.6118 3.28672 60.0475C3.82176 59.408 4.39502 58.9943 5.00651 58.8438C5.15938 58.8062 5.31224 58.7686 5.4269 58.7686C5.54155 58.7309 5.6562 58.7309 5.80908 58.7309C5.88551 58.7309 5.95239 58.7403 6.01927 58.7497C6.08615 58.7591 6.15303 58.7686 6.22947 58.7686C6.34412 58.7686 6.49699 58.8062 6.64986 58.8438C7.26134 58.9943 7.8346 59.408 8.33144 60.0475C8.82826 60.6869 9.09576 61.665 9.09576 63.0192C9.09576 64.3357 8.82826 65.3513 8.33144 65.9908C7.8346 66.6302 7.26134 67.044 6.64986 67.1945C6.62346 67.201 6.59819 67.2075 6.57368 67.2138C6.45625 67.2439 6.35594 67.2697 6.22947 67.2697C6.07661 67.3073 5.96196 67.3073 5.8091 67.3073H5.80908C5.75175 67.3073 5.68487 67.2979 5.61799 67.2885C5.5511 67.2791 5.48422 67.2697 5.4269 67.2697C5.30043 67.2697 5.20013 67.2439 5.0827 67.2138L5.08258 67.2137L5.0823 67.2137C5.0579 67.2074 5.03277 67.201 5.00651 67.1945C4.39502 67.044 3.82176 66.6302 3.28672 65.9908ZM16.0133 57.113H12.8794V68.8491H15.2871V61.9278L15.2489 59.8589H15.2871L15.8987 61.1754L20.0262 68.8491H23.16V57.113H20.7522V63.9967L20.7904 66.1031H20.7522L20.1408 64.4856L16.0133 57.113ZM25.644 57.113H28.0518V66.8555H32.7907V68.8491H25.644V57.113ZM34.09 57.113H31.3001L35.6951 64.0342V68.8491H38.1028V64.0718L42.4214 57.113H39.8609L37.3767 61.213L36.9945 62.0406H36.918L36.5359 61.213L34.09 57.113ZM62.0652 57.113H55.4153V68.8491H57.823V63.9214H61.8741V61.9278H57.823V59.069H62.0652V57.113ZM63.8614 57.113H70.5113V59.069H66.2692V61.9278H70.3202V63.9214H66.2692V68.8491H63.8614V57.113ZM71.9256 57.113V68.8491H74.3332V57.113H71.9256ZM84.9421 57.3762V59.4075C84.5217 59.2569 84.1014 59.1441 83.6428 59.0689C83.1841 58.9937 82.6491 58.9561 82.1141 58.9561C80.8529 58.9561 79.8974 59.3322 79.2095 60.1221C78.5216 60.8744 78.1776 61.8525 78.1776 63.0185C78.1776 64.147 78.4833 65.0874 79.1331 65.8397C79.7828 66.592 80.7 67.0058 81.8848 67.0058C82.248 67.0058 82.6113 66.9777 83.0238 66.9458C83.0887 66.9408 83.1548 66.9356 83.2224 66.9305C83.7192 66.8554 84.216 66.7425 84.751 66.5168L84.9039 68.5104C84.8277 68.548 84.7134 68.5855 84.599 68.623L84.5982 68.6233C84.4453 68.6609 84.2924 68.6985 84.1014 68.7361C83.9037 68.7848 83.6741 68.8177 83.4126 68.8552L83.4125 68.8552C83.2695 68.8757 83.1169 68.8976 82.9548 68.9242C82.4962 68.9618 82.0376 68.9994 81.5408 68.9994H81.3497H81.1586C79.7828 68.9242 78.5216 68.3976 77.375 67.4948C76.2285 66.5544 75.6553 65.0874 75.6553 63.1314C75.6553 61.2129 76.2285 59.7083 77.3369 58.6551C78.4452 57.6019 79.9739 57.0752 81.8465 57.0752C82.3434 57.0752 82.802 57.0752 83.1841 57.1129C83.5472 57.1454 83.8818 57.2059 84.2372 57.2703L84.2372 57.2703L84.238 57.2704C84.2938 57.2805 84.3501 57.2907 84.4071 57.3009C84.4453 57.3197 84.4931 57.3291 84.5409 57.3386C84.5886 57.348 84.6364 57.3574 84.6746 57.3762C84.7233 57.3522 84.7721 57.3588 84.8307 57.3667C84.864 57.3712 84.9006 57.3762 84.9421 57.3762ZM94 57.1134H86.8534V68.8495H94V67.0063H89.2993V63.6961H93.5417V61.8906H89.2993V58.9565H94V57.1134Z" fill="#333333"/>
</svg>
