<svg width="353" height="116" viewBox="0 0 353 116" fill="none" xmlns="http://www.w3.org/2000/svg">
<mask id="mask0_2783_140285" style="mask-type:alpha" maskUnits="userSpaceOnUse" x="0" y="0" width="353" height="116">
<rect width="353" height="116" rx="3" fill="#A6DCF2"/>
</mask>
<g mask="url(#mask0_2783_140285)">
<path opacity="0.2" fill-rule="evenodd" clip-rule="evenodd" d="M200.312 42.0118L319.469 5.44019C329.809 2.20939 330.913 -5.11013 321.937 -10.9211L217.12 -82.8431C206.428 -90.8525 196.26 -93.8367 180.603 -88.0369L61.6195 -51.631C51.2792 -48.4002 50.1752 -41.0807 59.1516 -35.2697L159.229 36.7745C169.982 45.1849 180.758 47.3099 200.312 42.0118Z" fill="#D9F4FF"/>
<path opacity="0.25" fill-rule="evenodd" clip-rule="evenodd" d="M61.6559 78.8594L-61.7485 56.1472C-72.29 54.1011 -74.1577 47.0037 -65.9233 40.2823L29.7952 -42.2144C37.9197 -49.3532 52.9337 -53.4495 63.0694 -51.2928L186.474 -28.5805C197.015 -26.5345 198.883 -19.437 190.649 -12.7157L94.9301 69.781C85.4843 78.1519 71.6817 80.5987 61.6559 78.8594Z" fill="#D9F4FF"/>
<path opacity="0.3" fill-rule="evenodd" clip-rule="evenodd" d="M90.9531 24.0097L101.347 -103.242C102.134 -114.139 95.8849 -117.813 87.3776 -111.454L-15.6547 -38.6627C-24.5296 -32.5195 -32.3014 -18.8129 -32.8787 -8.28579L-43.2726 118.966C-44.06 129.863 -37.8106 133.537 -29.3033 127.178L73.7291 54.3866C84.1147 47.2628 90.0081 34.3207 90.9531 24.0097Z" fill="#D9F4FF"/>
</g>
</svg>
