<svg width="20" height="20" viewBox="0 0 20 20" fill="none" xmlns="http://www.w3.org/2000/svg">
<path opacity="0.5" fill-rule="evenodd" clip-rule="evenodd" d="M8.78486 19.0661L0.537849 15.2974C-0.179283 14.9681 -0.179283 14.4558 0.537849 14.1631L3.40637 12.8459L8.74502 15.2974C9.46215 15.6267 10.5777 15.6267 11.255 15.2974L16.5936 12.8459L19.4621 14.1631C20.1793 14.4924 20.1793 15.0047 19.4621 15.2974L11.2151 19.0661C10.5777 19.3589 9.42231 19.3589 8.78486 19.0661Z" fill="#50575E"/>
<path opacity="0.7" fill-rule="evenodd" clip-rule="evenodd" d="M8.74502 14.4193L0.537849 10.6871C-0.179283 10.3578 -0.179283 9.84557 0.537849 9.55286L3.32669 8.27222L8.74502 10.7603C9.46215 11.0896 10.5777 11.0896 11.2151 10.7603L16.6335 8.27222L19.4223 9.55286C20.1394 9.88216 20.1394 10.3944 19.4223 10.6871L11.2151 14.4193C10.5378 14.7486 9.42231 14.7486 8.74502 14.4193Z" fill="#50575E"/>
<path fill-rule="evenodd" clip-rule="evenodd" d="M8.74502 9.88215L0.537849 6.15C-0.179283 5.8207 -0.179283 5.30844 0.537849 5.01572L8.74502 1.24698C9.46215 0.917673 10.5777 0.917673 11.2151 1.24698L19.4223 5.01572C20.1394 5.34503 20.1394 5.85729 19.4223 6.15L11.2151 9.88215C10.5378 10.2115 9.42231 10.2115 8.74502 9.88215Z" fill="#50575E"/>
</svg>
